<?xml version="1.0" encoding="UTF-8"?>
<?xml-stylesheet href="https://cdnjs.cloudflare.com/ajax/libs/font-awesome/6.7.2/css/all.min.css" type="text/css"?>
<svg id="graph-130" width="100%" xmlns="http://www.w3.org/2000/svg" style="overflow: hidden; max-width: 100%; touch-action: none; user-select: none; -webkit-user-drag: none; -webkit-tap-highlight-color: rgba(0, 0, 0, 0); background-color: rgb(2, 8, 23);" role="graphics-document document" aria-roledescription="sequence" height="100%" xmlns:xlink="http://www.w3.org/1999/xlink" xmlns:ev="http://www.w3.org/2001/xml-events"><defs><symbol id="graph-130-computer" width="24" height="24"><path transform="scale(.5)" d="M2 2v13h20v-13h-20zm18 11h-16v-9h16v9zm-10.228 6l.466-1h3.524l.467 1h-4.457zm14.228 3h-24l2-6h2.104l-1.33 4h18.45l-1.297-4h2.073l2 6zm-5-10h-14v-7h14v7z"></path></symbol></defs><defs><symbol id="graph-130-database" fill-rule="evenodd" clip-rule="evenodd"><path transform="scale(.5)" d="M12.258.001l.256.004.255.005.253.008.251.01.249.012.247.015.246.016.242.019.241.02.239.023.236.024.233.027.231.028.229.031.225.032.223.034.22.036.217.038.214.04.211.041.208.043.205.045.201.046.198.048.194.05.191.051.187.053.183.054.18.056.175.057.172.059.168.06.163.061.16.063.155.064.15.066.074.033.073.033.071.034.07.034.069.035.068.035.067.035.066.035.064.036.064.036.062.036.06.036.06.037.058.037.058.037.055.038.055.038.053.038.052.038.051.039.05.039.048.039.047.039.045.04.044.04.043.04.041.04.04.041.039.041.037.041.036.041.034.041.033.042.032.042.03.042.029.042.027.042.026.043.024.043.023.043.021.043.02.043.018.044.017.043.015.044.013.044.012.044.011.045.009.044.007.045.006.045.004.045.002.045.001.045v17l-.001.045-.002.045-.004.045-.006.045-.007.045-.009.044-.011.045-.012.044-.013.044-.015.044-.017.043-.018.044-.02.043-.021.043-.023.043-.024.043-.026.043-.027.042-.029.042-.03.042-.032.042-.033.042-.034.041-.036.041-.037.041-.039.041-.04.041-.041.04-.043.04-.044.04-.045.04-.047.039-.048.039-.05.039-.051.039-.052.038-.053.038-.055.038-.055.038-.058.037-.058.037-.06.037-.06.036-.062.036-.064.036-.064.036-.066.035-.067.035-.068.035-.069.035-.07.034-.071.034-.073.033-.074.033-.15.066-.155.064-.16.063-.163.061-.168.06-.172.059-.175.057-.18.056-.183.054-.187.053-.191.051-.194.05-.198.048-.201.046-.205.045-.208.043-.211.041-.214.04-.217.038-.22.036-.223.034-.225.032-.229.031-.231.028-.233.027-.236.024-.239.023-.241.02-.242.019-.246.016-.247.015-.249.012-.251.01-.253.008-.255.005-.256.004-.258.001-.258-.001-.256-.004-.255-.005-.253-.008-.251-.01-.249-.012-.247-.015-.245-.016-.243-.019-.241-.02-.238-.023-.236-.024-.234-.027-.231-.028-.228-.031-.226-.032-.223-.034-.22-.036-.217-.038-.214-.04-.211-.041-.208-.043-.204-.045-.201-.046-.198-.048-.195-.05-.19-.051-.187-.053-.184-.054-.179-.056-.176-.057-.172-.059-.167-.06-.164-.061-.159-.063-.155-.064-.151-.066-.074-.033-.072-.033-.072-.034-.07-.034-.069-.035-.068-.035-.067-.035-.066-.035-.064-.036-.063-.036-.062-.036-.061-.036-.06-.037-.058-.037-.057-.037-.056-.038-.055-.038-.053-.038-.052-.038-.051-.039-.049-.039-.049-.039-.046-.039-.046-.04-.044-.04-.043-.04-.041-.04-.04-.041-.039-.041-.037-.041-.036-.041-.034-.041-.033-.042-.032-.042-.03-.042-.029-.042-.027-.042-.026-.043-.024-.043-.023-.043-.021-.043-.02-.043-.018-.044-.017-.043-.015-.044-.013-.044-.012-.044-.011-.045-.009-.044-.007-.045-.006-.045-.004-.045-.002-.045-.001-.045v-17l.001-.045.002-.045.004-.045.006-.045.007-.045.009-.044.011-.045.012-.044.013-.044.015-.044.017-.043.018-.044.02-.043.021-.043.023-.043.024-.043.026-.043.027-.042.029-.042.03-.042.032-.042.033-.042.034-.041.036-.041.037-.041.039-.041.04-.041.041-.04.043-.04.044-.04.046-.04.046-.039.049-.039.049-.039.051-.039.052-.038.053-.038.055-.038.056-.038.057-.037.058-.037.06-.037.061-.036.062-.036.063-.036.064-.036.066-.035.067-.035.068-.035.069-.035.07-.034.072-.034.072-.033.074-.033.151-.066.155-.064.159-.063.164-.061.167-.06.172-.059.176-.057.179-.056.184-.054.187-.053.19-.051.195-.05.198-.048.201-.046.204-.045.208-.043.211-.041.214-.04.217-.038.22-.036.223-.034.226-.032.228-.031.231-.028.234-.027.236-.024.238-.023.241-.02.243-.019.245-.016.247-.015.249-.012.251-.01.253-.008.255-.005.256-.004.258-.001.258.001zm-9.258 20.499v.01l.001.021.003.021.004.022.005.021.006.022.007.022.009.023.01.022.011.023.012.023.013.023.015.023.016.024.017.023.018.024.019.024.021.024.022.025.023.024.024.025.052.049.056.05.061.051.066.051.07.051.075.051.079.052.084.052.088.052.092.052.097.052.102.051.105.052.11.052.114.051.119.051.123.051.127.05.131.05.135.05.139.048.144.049.147.047.152.047.155.047.16.045.163.045.167.043.171.043.176.041.178.041.183.039.187.039.19.037.194.035.197.035.202.033.204.031.209.03.212.029.216.027.219.025.222.024.226.021.23.02.233.018.236.016.24.015.243.012.246.01.249.008.253.005.256.004.259.001.26-.001.257-.004.254-.005.25-.008.247-.011.244-.012.241-.014.237-.016.233-.018.231-.021.226-.021.224-.024.22-.026.216-.027.212-.028.21-.031.205-.031.202-.034.198-.034.194-.036.191-.037.187-.039.183-.04.179-.04.175-.042.172-.043.168-.044.163-.045.16-.046.155-.046.152-.047.148-.048.143-.049.139-.049.136-.05.131-.05.126-.05.123-.051.118-.052.114-.051.11-.052.106-.052.101-.052.096-.052.092-.052.088-.053.083-.051.079-.052.074-.052.07-.051.065-.051.06-.051.056-.05.051-.05.023-.024.023-.025.021-.024.02-.024.019-.024.018-.024.017-.024.015-.023.014-.024.013-.023.012-.023.01-.023.01-.022.008-.022.006-.022.006-.022.004-.022.004-.021.001-.021.001-.021v-4.127l-.077.055-.08.053-.083.054-.085.053-.087.052-.09.052-.093.051-.095.05-.097.05-.1.049-.102.049-.105.048-.106.047-.109.047-.111.046-.114.045-.115.045-.118.044-.12.043-.122.042-.124.042-.126.041-.128.04-.13.04-.132.038-.134.038-.135.037-.138.037-.139.035-.142.035-.143.034-.144.033-.147.032-.148.031-.15.03-.151.03-.153.029-.154.027-.156.027-.158.026-.159.025-.161.024-.162.023-.163.022-.165.021-.166.02-.167.019-.169.018-.169.017-.171.016-.173.015-.173.014-.175.013-.175.012-.177.011-.178.01-.179.008-.179.008-.181.006-.182.005-.182.004-.184.003-.184.002h-.37l-.184-.002-.184-.003-.182-.004-.182-.005-.181-.006-.179-.008-.179-.008-.178-.01-.176-.011-.176-.012-.175-.013-.173-.014-.172-.015-.171-.016-.17-.017-.169-.018-.167-.019-.166-.02-.165-.021-.163-.022-.162-.023-.161-.024-.159-.025-.157-.026-.156-.027-.155-.027-.153-.029-.151-.03-.15-.03-.148-.031-.146-.032-.145-.033-.143-.034-.141-.035-.14-.035-.137-.037-.136-.037-.134-.038-.132-.038-.13-.04-.128-.04-.126-.041-.124-.042-.122-.042-.12-.044-.117-.043-.116-.045-.113-.045-.112-.046-.109-.047-.106-.047-.105-.048-.102-.049-.1-.049-.097-.05-.095-.05-.093-.052-.09-.051-.087-.052-.085-.053-.083-.054-.08-.054-.077-.054v4.127zm0-5.654v.011l.001.021.003.021.004.021.005.022.006.022.007.022.009.022.01.022.011.023.012.023.013.023.015.024.016.023.017.024.018.024.019.024.021.024.022.024.023.025.024.024.052.05.056.05.061.05.066.051.07.051.075.052.079.051.084.052.088.052.092.052.097.052.102.052.105.052.11.051.114.051.119.052.123.05.127.051.131.05.135.049.139.049.144.048.147.048.152.047.155.046.16.045.163.045.167.044.171.042.176.042.178.04.183.04.187.038.19.037.194.036.197.034.202.033.204.032.209.03.212.028.216.027.219.025.222.024.226.022.23.02.233.018.236.016.24.014.243.012.246.01.249.008.253.006.256.003.259.001.26-.001.257-.003.254-.006.25-.008.247-.01.244-.012.241-.015.237-.016.233-.018.231-.02.226-.022.224-.024.22-.025.216-.027.212-.029.21-.03.205-.032.202-.033.198-.035.194-.036.191-.037.187-.039.183-.039.179-.041.175-.042.172-.043.168-.044.163-.045.16-.045.155-.047.152-.047.148-.048.143-.048.139-.05.136-.049.131-.05.126-.051.123-.051.118-.051.114-.052.11-.052.106-.052.101-.052.096-.052.092-.052.088-.052.083-.052.079-.052.074-.051.07-.052.065-.051.06-.05.056-.051.051-.049.023-.025.023-.024.021-.025.02-.024.019-.024.018-.024.017-.024.015-.023.014-.023.013-.024.012-.022.01-.023.01-.023.008-.022.006-.022.006-.022.004-.021.004-.022.001-.021.001-.021v-4.139l-.077.054-.08.054-.083.054-.085.052-.087.053-.09.051-.093.051-.095.051-.097.05-.1.049-.102.049-.105.048-.106.047-.109.047-.111.046-.114.045-.115.044-.118.044-.12.044-.122.042-.124.042-.126.041-.128.04-.13.039-.132.039-.134.038-.135.037-.138.036-.139.036-.142.035-.143.033-.144.033-.147.033-.148.031-.15.03-.151.03-.153.028-.154.028-.156.027-.158.026-.159.025-.161.024-.162.023-.163.022-.165.021-.166.02-.167.019-.169.018-.169.017-.171.016-.173.015-.173.014-.175.013-.175.012-.177.011-.178.009-.179.009-.179.007-.181.007-.182.005-.182.004-.184.003-.184.002h-.37l-.184-.002-.184-.003-.182-.004-.182-.005-.181-.007-.179-.007-.179-.009-.178-.009-.176-.011-.176-.012-.175-.013-.173-.014-.172-.015-.171-.016-.17-.017-.169-.018-.167-.019-.166-.02-.165-.021-.163-.022-.162-.023-.161-.024-.159-.025-.157-.026-.156-.027-.155-.028-.153-.028-.151-.03-.15-.03-.148-.031-.146-.033-.145-.033-.143-.033-.141-.035-.14-.036-.137-.036-.136-.037-.134-.038-.132-.039-.13-.039-.128-.04-.126-.041-.124-.042-.122-.043-.12-.043-.117-.044-.116-.044-.113-.046-.112-.046-.109-.046-.106-.047-.105-.048-.102-.049-.1-.049-.097-.05-.095-.051-.093-.051-.09-.051-.087-.053-.085-.052-.083-.054-.08-.054-.077-.054v4.139zm0-5.666v.011l.001.02.003.022.004.021.005.022.006.021.007.022.009.023.01.022.011.023.012.023.013.023.015.023.016.024.017.024.018.023.019.024.021.025.022.024.023.024.024.025.052.05.056.05.061.05.066.051.07.051.075.052.079.051.084.052.088.052.092.052.097.052.102.052.105.051.11.052.114.051.119.051.123.051.127.05.131.05.135.05.139.049.144.048.147.048.152.047.155.046.16.045.163.045.167.043.171.043.176.042.178.04.183.04.187.038.19.037.194.036.197.034.202.033.204.032.209.03.212.028.216.027.219.025.222.024.226.021.23.02.233.018.236.017.24.014.243.012.246.01.249.008.253.006.256.003.259.001.26-.001.257-.003.254-.006.25-.008.247-.01.244-.013.241-.014.237-.016.233-.018.231-.02.226-.022.224-.024.22-.025.216-.027.212-.029.21-.03.205-.032.202-.033.198-.035.194-.036.191-.037.187-.039.183-.039.179-.041.175-.042.172-.043.168-.044.163-.045.16-.045.155-.047.152-.047.148-.048.143-.049.139-.049.136-.049.131-.051.126-.05.123-.051.118-.052.114-.051.11-.052.106-.052.101-.052.096-.052.092-.052.088-.052.083-.052.079-.052.074-.052.07-.051.065-.051.06-.051.056-.05.051-.049.023-.025.023-.025.021-.024.02-.024.019-.024.018-.024.017-.024.015-.023.014-.024.013-.023.012-.023.01-.022.01-.023.008-.022.006-.022.006-.022.004-.022.004-.021.001-.021.001-.021v-4.153l-.077.054-.08.054-.083.053-.085.053-.087.053-.09.051-.093.051-.095.051-.097.05-.1.049-.102.048-.105.048-.106.048-.109.046-.111.046-.114.046-.115.044-.118.044-.12.043-.122.043-.124.042-.126.041-.128.04-.13.039-.132.039-.134.038-.135.037-.138.036-.139.036-.142.034-.143.034-.144.033-.147.032-.148.032-.15.03-.151.03-.153.028-.154.028-.156.027-.158.026-.159.024-.161.024-.162.023-.163.023-.165.021-.166.02-.167.019-.169.018-.169.017-.171.016-.173.015-.173.014-.175.013-.175.012-.177.01-.178.01-.179.009-.179.007-.181.006-.182.006-.182.004-.184.003-.184.001-.185.001-.185-.001-.184-.001-.184-.003-.182-.004-.182-.006-.181-.006-.179-.007-.179-.009-.178-.01-.176-.01-.176-.012-.175-.013-.173-.014-.172-.015-.171-.016-.17-.017-.169-.018-.167-.019-.166-.02-.165-.021-.163-.023-.162-.023-.161-.024-.159-.024-.157-.026-.156-.027-.155-.028-.153-.028-.151-.03-.15-.03-.148-.032-.146-.032-.145-.033-.143-.034-.141-.034-.14-.036-.137-.036-.136-.037-.134-.038-.132-.039-.13-.039-.128-.041-.126-.041-.124-.041-.122-.043-.12-.043-.117-.044-.116-.044-.113-.046-.112-.046-.109-.046-.106-.048-.105-.048-.102-.048-.1-.05-.097-.049-.095-.051-.093-.051-.09-.052-.087-.052-.085-.053-.083-.053-.08-.054-.077-.054v4.153zm8.74-8.179l-.257.004-.254.005-.25.008-.247.011-.244.012-.241.014-.237.016-.233.018-.231.021-.226.022-.224.023-.22.026-.216.027-.212.028-.21.031-.205.032-.202.033-.198.034-.194.036-.191.038-.187.038-.183.04-.179.041-.175.042-.172.043-.168.043-.163.045-.16.046-.155.046-.152.048-.148.048-.143.048-.139.049-.136.05-.131.05-.126.051-.123.051-.118.051-.114.052-.11.052-.106.052-.101.052-.096.052-.092.052-.088.052-.083.052-.079.052-.074.051-.07.052-.065.051-.06.05-.056.05-.051.05-.023.025-.023.024-.021.024-.02.025-.019.024-.018.024-.017.023-.015.024-.014.023-.013.023-.012.023-.01.023-.01.022-.008.022-.006.023-.006.021-.004.022-.004.021-.001.021-.001.021.001.021.001.021.004.021.004.022.006.021.006.023.008.022.01.022.01.023.012.023.013.023.014.023.015.024.017.023.018.024.019.024.02.025.021.024.023.024.023.025.051.05.056.05.06.05.065.051.07.052.074.051.079.052.083.052.088.052.092.052.096.052.101.052.106.052.11.052.114.052.118.051.123.051.126.051.131.05.136.05.139.049.143.048.148.048.152.048.155.046.16.046.163.045.168.043.172.043.175.042.179.041.183.04.187.038.191.038.194.036.198.034.202.033.205.032.21.031.212.028.216.027.22.026.224.023.226.022.231.021.233.018.237.016.241.014.244.012.247.011.25.008.254.005.257.004.26.001.26-.001.257-.004.254-.005.25-.008.247-.011.244-.012.241-.014.237-.016.233-.018.231-.021.226-.022.224-.023.22-.026.216-.027.212-.028.21-.031.205-.032.202-.033.198-.034.194-.036.191-.038.187-.038.183-.04.179-.041.175-.042.172-.043.168-.043.163-.045.16-.046.155-.046.152-.048.148-.048.143-.048.139-.049.136-.05.131-.05.126-.051.123-.051.118-.051.114-.052.11-.052.106-.052.101-.052.096-.052.092-.052.088-.052.083-.052.079-.052.074-.051.07-.052.065-.051.06-.05.056-.05.051-.05.023-.025.023-.024.021-.024.02-.025.019-.024.018-.024.017-.023.015-.024.014-.023.013-.023.012-.023.01-.023.01-.022.008-.022.006-.023.006-.021.004-.022.004-.021.001-.021.001-.021-.001-.021-.001-.021-.004-.021-.004-.022-.006-.021-.006-.023-.008-.022-.01-.022-.01-.023-.012-.023-.013-.023-.014-.023-.015-.024-.017-.023-.018-.024-.019-.024-.02-.025-.021-.024-.023-.024-.023-.025-.051-.05-.056-.05-.06-.05-.065-.051-.07-.052-.074-.051-.079-.052-.083-.052-.088-.052-.092-.052-.096-.052-.101-.052-.106-.052-.11-.052-.114-.052-.118-.051-.123-.051-.126-.051-.131-.05-.136-.05-.139-.049-.143-.048-.148-.048-.152-.048-.155-.046-.16-.046-.163-.045-.168-.043-.172-.043-.175-.042-.179-.041-.183-.04-.187-.038-.191-.038-.194-.036-.198-.034-.202-.033-.205-.032-.21-.031-.212-.028-.216-.027-.22-.026-.224-.023-.226-.022-.231-.021-.233-.018-.237-.016-.241-.014-.244-.012-.247-.011-.25-.008-.254-.005-.257-.004-.26-.001-.26.001z"></path></symbol></defs><defs><symbol id="graph-130-clock" width="24" height="24"><path transform="scale(.5)" d="M12 2c5.514 0 10 4.486 10 10s-4.486 10-10 10-10-4.486-10-10 4.486-10 10-10zm0-2c-6.627 0-12 5.373-12 12s5.373 12 12 12 12-5.373 12-12-5.373-12-12-12zm5.848 12.459c.202.038.202.333.001.372-1.907.361-6.045 1.111-6.547 1.111-.719 0-1.301-.582-1.301-1.301 0-.512.77-5.447 1.125-7.445.034-.192.312-.181.343.014l.985 6.238 5.394 1.011z"></path></symbol></defs><defs><marker id="graph-130-arrowhead" refX="7.9" refY="5" markerUnits="userSpaceOnUse" markerWidth="12" markerHeight="12" orient="auto-start-reverse"><path d="M -1 0 L 10 5 L 0 10 z"></path></marker></defs><defs><marker id="graph-130-crosshead" markerWidth="15" markerHeight="8" orient="auto" refX="4" refY="4.5"><path fill="none" stroke="#000000" stroke-width="1pt" d="M 1,2 L 6,7 M 6,2 L 1,7" style="stroke-dasharray: 0, 0;"></path></marker></defs><defs><marker id="graph-130-filled-head" refX="15.5" refY="7" markerWidth="20" markerHeight="28" orient="auto"><path d="M 18,7 L9,13 L14,7 L9,1 Z"></path></marker></defs><defs><marker id="graph-130-sequencenumber" refX="15" refY="15" markerWidth="60" markerHeight="40" orient="auto"><circle cx="15" cy="15" r="6"></circle></marker></defs><defs><marker id="graph-130-solidTopArrowHead" refX="7.9" refY="7.25" markerUnits="userSpaceOnUse" markerWidth="12" markerHeight="12" orient="auto-start-reverse"><path d="M 0 0 L 10 8 L 0 8 z"></path></marker></defs><defs><marker id="graph-130-solidBottomArrowHead" refX="7.9" refY="0.75" markerUnits="userSpaceOnUse" markerWidth="12" markerHeight="12" orient="auto-start-reverse"><path d="M 0 0 L 10 0 L 0 8 z"></path></marker></defs><defs><marker id="graph-130-stickTopArrowHead" refX="7.5" refY="7" markerUnits="userSpaceOnUse" markerWidth="12" markerHeight="12" orient="auto-start-reverse"><path d="M 0 0 L 7 7" stroke="black" stroke-width="1.5" fill="none"></path></marker></defs><defs><marker id="graph-130-stickBottomArrowHead" refX="7.5" refY="0" markerUnits="userSpaceOnUse" markerWidth="12" markerHeight="12" orient="auto-start-reverse"><path d="M 0 7 L 7 0" stroke="black" stroke-width="1.5" fill="none"></path></marker></defs><g id="viewport-20260504010029907" class="svg-pan-zoom_viewport" transform="matrix(0.6291122593227181,0,0,0.6291122593227181,226.8142983911921,29.57207442082285)" style="transform: matrix(0.629112, 0, 0, 0.629112, 226.814, 29.5721);"><g><rect x="1120.5" y="1743" fill="#eaeaea" stroke="#666" width="169" height="65" name="Trig" rx="3" ry="3" class="actor actor-bottom"></rect><text x="1205" y="1775.5" dominant-baseline="central" alignment-baseline="central" class="actor actor-box" style="text-anchor: middle; font-size: 16px; font-weight: 400;"><tspan x="1205" dy="-8">DB Trigger</tspan></text><text x="1205" y="1775.5" dominant-baseline="central" alignment-baseline="central" class="actor actor-box" style="text-anchor: middle; font-size: 16px; font-weight: 400;"><tspan x="1205" dy="8">(handle_new_user)</tspan></text></g><g><rect x="855" y="1743" fill="#eaeaea" stroke="#666" width="150" height="65" name="DB" rx="3" ry="3" class="actor actor-bottom"></rect><text x="930" y="1775.5" dominant-baseline="central" alignment-baseline="central" class="actor actor-box" style="text-anchor: middle; font-size: 16px; font-weight: 400;"><tspan x="930" dy="0">Postgres + RLS</tspan></text></g><g><rect x="545.5" y="1743" fill="#eaeaea" stroke="#666" width="205" height="65" name="Auth" rx="3" ry="3" class="actor actor-bottom"></rect><text x="648" y="1775.5" dominant-baseline="central" alignment-baseline="central" class="actor actor-box" style="text-anchor: middle; font-size: 16px; font-weight: 400;"><tspan x="648" dy="0">Managed Auth Provider</tspan></text></g><g><rect x="292" y="1743" fill="#eaeaea" stroke="#666" width="150" height="65" name="FE" rx="3" ry="3" class="actor actor-bottom"></rect><text x="367" y="1775.5" dominant-baseline="central" alignment-baseline="central" class="actor actor-box" style="text-anchor: middle; font-size: 16px; font-weight: 400;"><tspan x="367" dy="0">Client App</tspan></text></g><g></g><g><line id="actor4" x1="1205" y1="65" x2="1205" y2="1743" class="actor-line 200" stroke-width="0.5px" stroke="#999" name="Trig" data-et="life-line" data-id="Trig"></line><g id="root-4" data-et="participant" data-type="participant" data-id="Trig"><rect x="1120.5" y="0" fill="#eaeaea" stroke="#666" width="169" height="65" name="Trig" rx="3" ry="3" class="actor actor-top"></rect><text x="1205" y="32.5" dominant-baseline="central" alignment-baseline="central" class="actor actor-box" style="text-anchor: middle; font-size: 16px; font-weight: 400;"><tspan x="1205" dy="-8">DB Trigger</tspan></text><text x="1205" y="32.5" dominant-baseline="central" alignment-baseline="central" class="actor actor-box" style="text-anchor: middle; font-size: 16px; font-weight: 400;"><tspan x="1205" dy="8">(handle_new_user)</tspan></text></g></g><g><line id="actor3" x1="930" y1="65" x2="930" y2="1743" class="actor-line 200" stroke-width="0.5px" stroke="#999" name="DB" data-et="life-line" data-id="DB"></line><g id="root-3" data-et="participant" data-type="participant" data-id="DB"><rect x="855" y="0" fill="#eaeaea" stroke="#666" width="150" height="65" name="DB" rx="3" ry="3" class="actor actor-top"></rect><text x="930" y="32.5" dominant-baseline="central" alignment-baseline="central" class="actor actor-box" style="text-anchor: middle; font-size: 16px; font-weight: 400;"><tspan x="930" dy="0">Postgres + RLS</tspan></text></g></g><g><line id="actor2" x1="648" y1="65" x2="648" y2="1743" class="actor-line 200" stroke-width="0.5px" stroke="#999" name="Auth" data-et="life-line" data-id="Auth"></line><g id="root-2" data-et="participant" data-type="participant" data-id="Auth"><rect x="545.5" y="0" fill="#eaeaea" stroke="#666" width="205" height="65" name="Auth" rx="3" ry="3" class="actor actor-top"></rect><text x="648" y="32.5" dominant-baseline="central" alignment-baseline="central" class="actor actor-box" style="text-anchor: middle; font-size: 16px; font-weight: 400;"><tspan x="648" dy="0">Managed Auth Provider</tspan></text></g></g><g><line id="actor1" x1="367" y1="65" x2="367" y2="1743" class="actor-line 200" stroke-width="0.5px" stroke="#999" name="FE" data-et="life-line" data-id="FE"></line><g id="root-1" data-et="participant" data-type="participant" data-id="FE"><rect x="292" y="0" fill="#eaeaea" stroke="#666" width="150" height="65" name="FE" rx="3" ry="3" class="actor actor-top"></rect><text x="367" y="32.5" dominant-baseline="central" alignment-baseline="central" class="actor actor-box" style="text-anchor: middle; font-size: 16px; font-weight: 400;"><tspan x="367" dy="0">Client App</tspan></text></g></g><g><line id="actor0" x1="75" y1="80" x2="75" y2="1743" class="actor-line 200" stroke-width="0.5px" stroke="#999" name="User" data-et="life-line" data-id="User"></line></g><style>#graph-130{font-family:"trebuchet ms",verdana,arial,sans-serif;font-size:16px;fill:#ccc;}@keyframes edge-animation-frame{from{stroke-dashoffset:0;}}@keyframes dash{to{stroke-dashoffset:0;}}#graph-130 .edge-animation-slow{stroke-dasharray:9,5!important;stroke-dashoffset:900;animation:dash 50s linear infinite;stroke-linecap:round;}#graph-130 .edge-animation-fast{stroke-dasharray:9,5!important;stroke-dashoffset:900;animation:dash 20s linear infinite;stroke-linecap:round;}#graph-130 .error-icon{fill:#a44141;}#graph-130 .error-text{fill:#ddd;stroke:#ddd;}#graph-130 .edge-thickness-normal{stroke-width:1px;}#graph-130 .edge-thickness-thick{stroke-width:3.5px;}#graph-130 .edge-pattern-solid{stroke-dasharray:0;}#graph-130 .edge-thickness-invisible{stroke-width:0;fill:none;}#graph-130 .edge-pattern-dashed{stroke-dasharray:3;}#graph-130 .edge-pattern-dotted{stroke-dasharray:2;}#graph-130 .marker{fill:lightgrey;stroke:lightgrey;}#graph-130 .marker.cross{stroke:lightgrey;}#graph-130 svg{font-family:"trebuchet ms",verdana,arial,sans-serif;font-size:16px;}#graph-130 p{margin:0;}#graph-130 .actor{stroke:#ccc;fill:#1f2020;stroke-width:1;}#graph-130 rect.actor.outer-path[data-look="neo"]{filter:drop-shadow( 1px 2px 2px rgba(185,185,185,1));}#graph-130 rect.note[data-look="neo"]{stroke:hsl(180, 0%, 18.3529411765%);fill:hsl(180, 1.5873015873%, 28.3529411765%);filter:drop-shadow( 1px 2px 2px rgba(185,185,185,1));}#graph-130 text.actor&gt;tspan{fill:lightgrey;stroke:none;}#graph-130 .actor-line{stroke:#ccc;}#graph-130 .innerArc{stroke-width:1.5;stroke-dasharray:none;}#graph-130 .messageLine0{stroke-width:1.5;stroke-dasharray:none;stroke:lightgrey;}#graph-130 .messageLine1{stroke-width:1.5;stroke-dasharray:2,2;stroke:lightgrey;}#graph-130 [id$="-arrowhead"] path{fill:lightgrey;stroke:lightgrey;}#graph-130 .sequenceNumber{fill:black;}#graph-130 [id$="-sequencenumber"]{fill:lightgrey;}#graph-130 [id$="-crosshead"] path{fill:lightgrey;stroke:lightgrey;}#graph-130 .messageText{fill:lightgrey;stroke:none;}#graph-130 .labelBox{stroke:#ccc;fill:#1f2020;filter:none;}#graph-130 .labelText,#graph-130 .labelText&gt;tspan{fill:lightgrey;stroke:none;}#graph-130 .loopText,#graph-130 .loopText&gt;tspan{fill:lightgrey;stroke:none;}#graph-130 .loopLine{stroke-width:2px;stroke-dasharray:2,2;stroke:#ccc;fill:#ccc;}#graph-130 .note{stroke:hsl(180, 0%, 18.3529411765%);fill:hsl(180, 1.5873015873%, 28.3529411765%);}#graph-130 .noteText,#graph-130 .noteText&gt;tspan{fill:rgb(183.8476190475, 181.5523809523, 181.5523809523);stroke:none;font-weight:normal;}#graph-130 .activation0{fill:hsl(180, 1.5873015873%, 28.3529411765%);stroke:#ccc;}#graph-130 .activation1{fill:hsl(180, 1.5873015873%, 28.3529411765%);stroke:#ccc;}#graph-130 .activation2{fill:hsl(180, 1.5873015873%, 28.3529411765%);stroke:#ccc;}#graph-130 .actorPopupMenu{position:absolute;}#graph-130 .actorPopupMenuPanel{position:absolute;fill:#1f2020;box-shadow:0px 8px 16px 0px rgba(0,0,0,0.2);filter:drop-shadow(3px 5px 2px rgb(0 0 0 / 0.4));}#graph-130 .actor-man circle,#graph-130 line{fill:#1f2020;stroke-width:2px;}#graph-130 g rect.rect{filter:drop-shadow( 1px 2px 2px rgba(185,185,185,1));stroke:#ccc;}#graph-130 .node .neo-node{stroke:#ccc;}#graph-130 [data-look="neo"].node rect,#graph-130 [data-look="neo"].cluster rect,#graph-130 [data-look="neo"].node polygon{stroke:url(#graph-130-gradient);filter:drop-shadow( 1px 2px 2px rgba(185,185,185,1));}#graph-130 [data-look="neo"].node path{stroke:url(#graph-130-gradient);stroke-width:1px;}#graph-130 [data-look="neo"].node .outer-path{filter:drop-shadow( 1px 2px 2px rgba(185,185,185,1));}#graph-130 [data-look="neo"].node .neo-line path{stroke:#ccc;filter:none;}#graph-130 [data-look="neo"].node circle{stroke:url(#graph-130-gradient);filter:drop-shadow( 1px 2px 2px rgba(185,185,185,1));}#graph-130 [data-look="neo"].node circle .state-start{fill:#000000;}#graph-130 [data-look="neo"].icon-shape .icon{fill:url(#graph-130-gradient);filter:drop-shadow( 1px 2px 2px rgba(185,185,185,1));}#graph-130 [data-look="neo"].icon-shape .icon-neo path{stroke:url(#graph-130-gradient);filter:drop-shadow( 1px 2px 2px rgba(185,185,185,1));}#graph-130 :root{--mermaid-font-family:"trebuchet ms",verdana,arial,sans-serif;}</style><g></g><g data-et="note" data-id="i1"><rect x="50" y="75" fill="#EDF2AE" stroke="#666" width="905" height="39" class="note"></rect><text x="503" y="80" text-anchor="middle" dominant-baseline="middle" alignment-baseline="middle" class="noteText" dy="1em" style="font-size: 16px; font-weight: 400;"><tspan x="503">--- Signup ---</tspan></text></g><g data-et="note" data-id="i12"><rect x="50" y="672" fill="#EDF2AE" stroke="#666" width="905" height="39" class="note"></rect><text x="503" y="677" text-anchor="middle" dominant-baseline="middle" alignment-baseline="middle" class="noteText" dy="1em" style="font-size: 16px; font-weight: 400;"><tspan x="503">--- Login ---</tspan></text></g><g data-et="note" data-id="i18"><rect x="50" y="961" fill="#EDF2AE" stroke="#666" width="905" height="39" class="note"></rect><text x="503" y="966" text-anchor="middle" dominant-baseline="middle" alignment-baseline="middle" class="noteText" dy="1em" style="font-size: 16px; font-weight: 400;"><tspan x="503">--- Authenticated DB call (typical read path) ---</tspan></text></g><g data-et="note" data-id="i24"><rect x="50" y="1299" fill="#EDF2AE" stroke="#666" width="905" height="39" class="note"></rect><text x="503" y="1304" text-anchor="middle" dominant-baseline="middle" alignment-baseline="middle" class="noteText" dy="1em" style="font-size: 16px; font-weight: 400;"><tspan x="503">--- Privileged action (e.g., create checkout) ---</tspan></text></g><g class="actor-man actor-top" name="User" data-et="participant" data-type="actor" data-id="User" style="stroke: rgb(204, 204, 204);"><line id="actor-man-torso0" x1="75" y1="25" x2="75" y2="45"></line><line id="actor-man-arms0" x1="57" y1="33" x2="93" y2="33"></line><line x1="57" y1="60" x2="75" y2="45"></line><line x1="75" y1="45" x2="91" y2="60"></line><circle cx="75" cy="10" r="15" width="150" height="65"></circle><text x="75" y="67.5" dominant-baseline="central" alignment-baseline="central" class="actor actor-man" style="text-anchor: middle; font-size: 16px; font-weight: 400;"><tspan x="75" dy="0">User</tspan></text></g><text x="220" y="129" text-anchor="middle" dominant-baseline="middle" alignment-baseline="middle" class="messageText" dy="1em" style="font-size: 16px; font-weight: 400;">Submit {email, password}</text><line x1="82" y1="162" x2="363" y2="162" class="messageLine0" data-et="message" data-id="i2" data-from="User" data-to="FE" stroke-width="2" stroke="none" marker-end="url(#graph-130-arrowhead)" style="fill: none;"></line><line x1="75" y1="162" x2="75" y2="162" stroke-width="0" marker-start="url(#graph-130-sequencenumber)"></line><text x="75" y="166" font-family="sans-serif" font-size="12px" text-anchor="middle" class="sequenceNumber">1</text><text x="368" y="177" text-anchor="middle" dominant-baseline="middle" alignment-baseline="middle" class="messageText" dy="1em" style="font-size: 16px; font-weight: 400;">Reject disposable email domain</text><text x="368" y="196" text-anchor="middle" dominant-baseline="middle" alignment-baseline="middle" class="messageText" dy="1em" style="font-size: 16px; font-weight: 400;">(client-side)</text><path d="M 368,229 C 428,219 428,259 368,249" class="messageLine0" data-et="message" data-id="i3" data-from="FE" data-to="FE" stroke-width="2" stroke="none" marker-end="url(#graph-130-arrowhead)" x1="374" style="fill: none;"></path><line x1="367" y1="229" x2="367" y2="229" stroke-width="0" marker-start="url(#graph-130-sequencenumber)"></line><text x="367" y="233" font-family="sans-serif" font-size="12px" text-anchor="middle" class="sequenceNumber">2</text><text x="506" y="274" text-anchor="middle" dominant-baseline="middle" alignment-baseline="middle" class="messageText" dy="1em" style="font-size: 16px; font-weight: 400;">signUp(email, password)</text><line x1="374" y1="307" x2="644" y2="307" class="messageLine0" data-et="message" data-id="i4" data-from="FE" data-to="Auth" stroke-width="2" stroke="none" marker-end="url(#graph-130-arrowhead)" style="fill: none;"></line><line x1="367" y1="307" x2="367" y2="307" stroke-width="0" marker-start="url(#graph-130-sequencenumber)"></line><text x="367" y="311" font-family="sans-serif" font-size="12px" text-anchor="middle" class="sequenceNumber">3</text><text x="788" y="322" text-anchor="middle" dominant-baseline="middle" alignment-baseline="middle" class="messageText" dy="1em" style="font-size: 16px; font-weight: 400;">Insert auth.users row</text><line x1="655" y1="355" x2="926" y2="355" class="messageLine0" data-et="message" data-id="i5" data-from="Auth" data-to="DB" stroke-width="2" stroke="none" marker-end="url(#graph-130-arrowhead)" style="fill: none;"></line><line x1="648" y1="355" x2="648" y2="355" stroke-width="0" marker-start="url(#graph-130-sequencenumber)"></line><text x="648" y="359" font-family="sans-serif" font-size="12px" text-anchor="middle" class="sequenceNumber">4</text><text x="1066" y="370" text-anchor="middle" dominant-baseline="middle" alignment-baseline="middle" class="messageText" dy="1em" style="font-size: 16px; font-weight: 400;">Fires on insert</text><line x1="937" y1="403" x2="1201" y2="403" class="messageLine0" data-et="message" data-id="i6" data-from="DB" data-to="Trig" stroke-width="2" stroke="none" marker-end="url(#graph-130-arrowhead)" style="fill: none;"></line><line x1="930" y1="403" x2="930" y2="403" stroke-width="0" marker-start="url(#graph-130-sequencenumber)"></line><text x="930" y="407" font-family="sans-serif" font-size="12px" text-anchor="middle" class="sequenceNumber">5</text><text x="1069" y="418" text-anchor="middle" dominant-baseline="middle" alignment-baseline="middle" class="messageText" dy="1em" style="font-size: 16px; font-weight: 400;">Insert public.profiles row</text><text x="1069" y="437" text-anchor="middle" dominant-baseline="middle" alignment-baseline="middle" class="messageText" dy="1em" style="font-size: 16px; font-weight: 400;">(id, email, full_name)</text><line x1="1210" y1="470" x2="934" y2="470" class="messageLine0" data-et="message" data-id="i7" data-from="Trig" data-to="DB" stroke-width="2" stroke="none" marker-end="url(#graph-130-arrowhead)" style="fill: none;"></line><line x1="1205" y1="470" x2="1205" y2="470" stroke-width="0" marker-start="url(#graph-130-sequencenumber)"></line><text x="1205" y="474" font-family="sans-serif" font-size="12px" text-anchor="middle" class="sequenceNumber">6</text><text x="509" y="485" text-anchor="middle" dominant-baseline="middle" alignment-baseline="middle" class="messageText" dy="1em" style="font-size: 16px; font-weight: 400;">Verification email pending</text><line x1="653" y1="518" x2="371" y2="518" class="messageLine1" data-et="message" data-id="i8" data-from="Auth" data-to="FE" stroke-width="2" stroke="none" marker-end="url(#graph-130-arrowhead)" style="stroke-dasharray: 3, 3; fill: none;"></line><line x1="648" y1="518" x2="648" y2="518" stroke-width="0" marker-start="url(#graph-130-sequencenumber)"></line><text x="648" y="522" font-family="sans-serif" font-size="12px" text-anchor="middle" class="sequenceNumber">7</text><text x="363" y="533" text-anchor="middle" dominant-baseline="middle" alignment-baseline="middle" class="messageText" dy="1em" style="font-size: 16px; font-weight: 400;">Email with verify link</text><line x1="653" y1="566" x2="79" y2="566" class="messageLine0" data-et="message" data-id="i9" data-from="Auth" data-to="User" stroke-width="2" stroke="none" marker-end="url(#graph-130-arrowhead)" style="fill: none;"></line><line x1="648" y1="566" x2="648" y2="566" stroke-width="0" marker-start="url(#graph-130-sequencenumber)"></line><text x="648" y="570" font-family="sans-serif" font-size="12px" text-anchor="middle" class="sequenceNumber">8</text><text x="360" y="581" text-anchor="middle" dominant-baseline="middle" alignment-baseline="middle" class="messageText" dy="1em" style="font-size: 16px; font-weight: 400;">Click verify link → /auth/confirm</text><line x1="82" y1="614" x2="644" y2="614" class="messageLine0" data-et="message" data-id="i10" data-from="User" data-to="Auth" stroke-width="2" stroke="none" marker-end="url(#graph-130-arrowhead)" style="fill: none;"></line><line x1="75" y1="614" x2="75" y2="614" stroke-width="0" marker-start="url(#graph-130-sequencenumber)"></line><text x="75" y="618" font-family="sans-serif" font-size="12px" text-anchor="middle" class="sequenceNumber">9</text><text x="788" y="629" text-anchor="middle" dominant-baseline="middle" alignment-baseline="middle" class="messageText" dy="1em" style="font-size: 16px; font-weight: 400;">Mark email_verified = true</text><line x1="655" y1="662" x2="926" y2="662" class="messageLine0" data-et="message" data-id="i11" data-from="Auth" data-to="DB" stroke-width="2" stroke="none" marker-end="url(#graph-130-arrowhead)" style="fill: none;"></line><line x1="648" y1="662" x2="648" y2="662" stroke-width="0" marker-start="url(#graph-130-sequencenumber)"></line><text x="648" y="666" font-family="sans-serif" font-size="12px" text-anchor="middle" class="sequenceNumber">10</text><text x="220" y="726" text-anchor="middle" dominant-baseline="middle" alignment-baseline="middle" class="messageText" dy="1em" style="font-size: 16px; font-weight: 400;">Submit credentials</text><line x1="82" y1="759" x2="363" y2="759" class="messageLine0" data-et="message" data-id="i13" data-from="User" data-to="FE" stroke-width="2" stroke="none" marker-end="url(#graph-130-arrowhead)" style="fill: none;"></line><line x1="75" y1="759" x2="75" y2="759" stroke-width="0" marker-start="url(#graph-130-sequencenumber)"></line><text x="75" y="763" font-family="sans-serif" font-size="12px" text-anchor="middle" class="sequenceNumber">11</text><text x="506" y="774" text-anchor="middle" dominant-baseline="middle" alignment-baseline="middle" class="messageText" dy="1em" style="font-size: 16px; font-weight: 400;">signInWithPassword</text><line x1="374" y1="807" x2="644" y2="807" class="messageLine0" data-et="message" data-id="i14" data-from="FE" data-to="Auth" stroke-width="2" stroke="none" marker-end="url(#graph-130-arrowhead)" style="fill: none;"></line><line x1="367" y1="807" x2="367" y2="807" stroke-width="0" marker-start="url(#graph-130-sequencenumber)"></line><text x="367" y="811" font-family="sans-serif" font-size="12px" text-anchor="middle" class="sequenceNumber">12</text><text x="788" y="822" text-anchor="middle" dominant-baseline="middle" alignment-baseline="middle" class="messageText" dy="1em" style="font-size: 16px; font-weight: 400;">Verify hash</text><line x1="655" y1="855" x2="926" y2="855" class="messageLine0" data-et="message" data-id="i15" data-from="Auth" data-to="DB" stroke-width="2" stroke="none" marker-end="url(#graph-130-arrowhead)" style="fill: none;"></line><line x1="648" y1="855" x2="648" y2="855" stroke-width="0" marker-start="url(#graph-130-sequencenumber)"></line><text x="648" y="859" font-family="sans-serif" font-size="12px" text-anchor="middle" class="sequenceNumber">13</text><text x="509" y="870" text-anchor="middle" dominant-baseline="middle" alignment-baseline="middle" class="messageText" dy="1em" style="font-size: 16px; font-weight: 400;">HTTP-only secure cookie</text><line x1="653" y1="903" x2="371" y2="903" class="messageLine1" data-et="message" data-id="i16" data-from="Auth" data-to="FE" stroke-width="2" stroke="none" marker-end="url(#graph-130-arrowhead)" style="stroke-dasharray: 3, 3; fill: none;"></line><line x1="648" y1="903" x2="648" y2="903" stroke-width="0" marker-start="url(#graph-130-sequencenumber)"></line><text x="648" y="907" font-family="sans-serif" font-size="12px" text-anchor="middle" class="sequenceNumber">14</text><text x="223" y="918" text-anchor="middle" dominant-baseline="middle" alignment-baseline="middle" class="messageText" dy="1em" style="font-size: 16px; font-weight: 400;">Redirect to /dashboard</text><line x1="372" y1="951" x2="79" y2="951" class="messageLine1" data-et="message" data-id="i17" data-from="FE" data-to="User" stroke-width="2" stroke="none" marker-end="url(#graph-130-arrowhead)" style="stroke-dasharray: 3, 3; fill: none;"></line><line x1="367" y1="951" x2="367" y2="951" stroke-width="0" marker-start="url(#graph-130-sequencenumber)"></line><text x="367" y="955" font-family="sans-serif" font-size="12px" text-anchor="middle" class="sequenceNumber">15</text><text x="220" y="1015" text-anchor="middle" dominant-baseline="middle" alignment-baseline="middle" class="messageText" dy="1em" style="font-size: 16px; font-weight: 400;">Action (list invoices)</text><line x1="82" y1="1048" x2="363" y2="1048" class="messageLine0" data-et="message" data-id="i19" data-from="User" data-to="FE" stroke-width="2" stroke="none" marker-end="url(#graph-130-arrowhead)" style="fill: none;"></line><line x1="75" y1="1048" x2="75" y2="1048" stroke-width="0" marker-start="url(#graph-130-sequencenumber)"></line><text x="75" y="1052" font-family="sans-serif" font-size="12px" text-anchor="middle" class="sequenceNumber">16</text><text x="647" y="1063" text-anchor="middle" dominant-baseline="middle" alignment-baseline="middle" class="messageText" dy="1em" style="font-size: 16px; font-weight: 400;">select * from documents</text><text x="647" y="1082" text-anchor="middle" dominant-baseline="middle" alignment-baseline="middle" class="messageText" dy="1em" style="font-size: 16px; font-weight: 400;">(session JWT, anon key)</text><line x1="374" y1="1115" x2="926" y2="1115" class="messageLine0" data-et="message" data-id="i20" data-from="FE" data-to="DB" stroke-width="2" stroke="none" marker-end="url(#graph-130-arrowhead)" style="fill: none;"></line><line x1="367" y1="1115" x2="367" y2="1115" stroke-width="0" marker-start="url(#graph-130-sequencenumber)"></line><text x="367" y="1119" font-family="sans-serif" font-size="12px" text-anchor="middle" class="sequenceNumber">17</text><text x="931" y="1130" text-anchor="middle" dominant-baseline="middle" alignment-baseline="middle" class="messageText" dy="1em" style="font-size: 16px; font-weight: 400;">RLS: auth.uid() = user_id</text><path d="M 931,1163 C 991,1153 991,1193 931,1183" class="messageLine0" data-et="message" data-id="i21" data-from="DB" data-to="DB" stroke-width="2" stroke="none" marker-end="url(#graph-130-arrowhead)" x1="937" style="fill: none;"></path><line x1="930" y1="1163" x2="930" y2="1163" stroke-width="0" marker-start="url(#graph-130-sequencenumber)"></line><text x="930" y="1167" font-family="sans-serif" font-size="12px" text-anchor="middle" class="sequenceNumber">18</text><text x="650" y="1208" text-anchor="middle" dominant-baseline="middle" alignment-baseline="middle" class="messageText" dy="1em" style="font-size: 16px; font-weight: 400;">Only own rows</text><line x1="935" y1="1241" x2="371" y2="1241" class="messageLine1" data-et="message" data-id="i22" data-from="DB" data-to="FE" stroke-width="2" stroke="none" marker-end="url(#graph-130-arrowhead)" style="stroke-dasharray: 3, 3; fill: none;"></line><line x1="930" y1="1241" x2="930" y2="1241" stroke-width="0" marker-start="url(#graph-130-sequencenumber)"></line><text x="930" y="1245" font-family="sans-serif" font-size="12px" text-anchor="middle" class="sequenceNumber">19</text><text x="223" y="1256" text-anchor="middle" dominant-baseline="middle" alignment-baseline="middle" class="messageText" dy="1em" style="font-size: 16px; font-weight: 400;">Render</text><line x1="372" y1="1289" x2="79" y2="1289" class="messageLine1" data-et="message" data-id="i23" data-from="FE" data-to="User" stroke-width="2" stroke="none" marker-end="url(#graph-130-arrowhead)" style="stroke-dasharray: 3, 3; fill: none;"></line><line x1="367" y1="1289" x2="367" y2="1289" stroke-width="0" marker-start="url(#graph-130-sequencenumber)"></line><text x="367" y="1293" font-family="sans-serif" font-size="12px" text-anchor="middle" class="sequenceNumber">20</text><text x="220" y="1353" text-anchor="middle" dominant-baseline="middle" alignment-baseline="middle" class="messageText" dy="1em" style="font-size: 16px; font-weight: 400;">Click "Upgrade to Pro"</text><line x1="82" y1="1386" x2="363" y2="1386" class="messageLine0" data-et="message" data-id="i25" data-from="User" data-to="FE" stroke-width="2" stroke="none" marker-end="url(#graph-130-arrowhead)" style="fill: none;"></line><line x1="75" y1="1386" x2="75" y2="1386" stroke-width="0" marker-start="url(#graph-130-sequencenumber)"></line><text x="75" y="1390" font-family="sans-serif" font-size="12px" text-anchor="middle" class="sequenceNumber">21</text><text x="368" y="1401" text-anchor="middle" dominant-baseline="middle" alignment-baseline="middle" class="messageText" dy="1em" style="font-size: 16px; font-weight: 400;">Verify origin allowlist</text><path d="M 368,1434 C 428,1424 428,1464 368,1454" class="messageLine0" data-et="message" data-id="i26" data-from="FE" data-to="FE" stroke-width="2" stroke="none" marker-end="url(#graph-130-arrowhead)" x1="374" style="fill: none;"></path><line x1="367" y1="1434" x2="367" y2="1434" stroke-width="0" marker-start="url(#graph-130-sequencenumber)"></line><text x="367" y="1438" font-family="sans-serif" font-size="12px" text-anchor="middle" class="sequenceNumber">22</text><text x="506" y="1479" text-anchor="middle" dominant-baseline="middle" alignment-baseline="middle" class="messageText" dy="1em" style="font-size: 16px; font-weight: 400;">Get current session</text><line x1="374" y1="1512" x2="644" y2="1512" class="messageLine0" data-et="message" data-id="i27" data-from="FE" data-to="Auth" stroke-width="2" stroke="none" marker-end="url(#graph-130-arrowhead)" style="fill: none;"></line><line x1="367" y1="1512" x2="367" y2="1512" stroke-width="0" marker-start="url(#graph-130-sequencenumber)"></line><text x="367" y="1516" font-family="sans-serif" font-size="12px" text-anchor="middle" class="sequenceNumber">23</text><text x="509" y="1527" text-anchor="middle" dominant-baseline="middle" alignment-baseline="middle" class="messageText" dy="1em" style="font-size: 16px; font-weight: 400;">User object</text><line x1="653" y1="1560" x2="371" y2="1560" class="messageLine1" data-et="message" data-id="i28" data-from="Auth" data-to="FE" stroke-width="2" stroke="none" marker-end="url(#graph-130-arrowhead)" style="stroke-dasharray: 3, 3; fill: none;"></line><line x1="648" y1="1560" x2="648" y2="1560" stroke-width="0" marker-start="url(#graph-130-sequencenumber)"></line><text x="648" y="1564" font-family="sans-serif" font-size="12px" text-anchor="middle" class="sequenceNumber">24</text><text x="647" y="1575" text-anchor="middle" dominant-baseline="middle" alignment-baseline="middle" class="messageText" dy="1em" style="font-size: 16px; font-weight: 400;">(server-side via API route) call Stripe</text><text x="647" y="1594" text-anchor="middle" dominant-baseline="middle" alignment-baseline="middle" class="messageText" dy="1em" style="font-size: 16px; font-weight: 400;">service-role re-checks user.id</text><line x1="374" y1="1627" x2="926" y2="1627" class="messageLine0" data-et="message" data-id="i29" data-from="FE" data-to="DB" stroke-width="2" stroke="none" marker-end="url(#graph-130-arrowhead)" style="fill: none;"></line><line x1="367" y1="1627" x2="367" y2="1627" stroke-width="0" marker-start="url(#graph-130-sequencenumber)"></line><text x="367" y="1631" font-family="sans-serif" font-size="12px" text-anchor="middle" class="sequenceNumber">25</text><text x="650" y="1642" text-anchor="middle" dominant-baseline="middle" alignment-baseline="middle" class="messageText" dy="1em" style="font-size: 16px; font-weight: 400;">Checkout URL</text><line x1="935" y1="1675" x2="371" y2="1675" class="messageLine1" data-et="message" data-id="i30" data-from="DB" data-to="FE" stroke-width="2" stroke="none" marker-end="url(#graph-130-arrowhead)" style="stroke-dasharray: 3, 3; fill: none;"></line><line x1="930" y1="1675" x2="930" y2="1675" stroke-width="0" marker-start="url(#graph-130-sequencenumber)"></line><text x="930" y="1679" font-family="sans-serif" font-size="12px" text-anchor="middle" class="sequenceNumber">26</text><text x="223" y="1690" text-anchor="middle" dominant-baseline="middle" alignment-baseline="middle" class="messageText" dy="1em" style="font-size: 16px; font-weight: 400;">Redirect to Stripe Checkout</text><line x1="372" y1="1723" x2="79" y2="1723" class="messageLine1" data-et="message" data-id="i31" data-from="FE" data-to="User" stroke-width="2" stroke="none" marker-end="url(#graph-130-arrowhead)" style="stroke-dasharray: 3, 3; fill: none;"></line><line x1="367" y1="1723" x2="367" y2="1723" stroke-width="0" marker-start="url(#graph-130-sequencenumber)"></line><text x="367" y="1727" font-family="sans-serif" font-size="12px" text-anchor="middle" class="sequenceNumber">27</text><g class="actor-man actor-bottom" name="User" style="stroke: rgb(204, 204, 204);"><line id="actor-man-torso4" x1="75" y1="1768" x2="75" y2="1788"></line><line id="actor-man-arms4" x1="57" y1="1776" x2="93" y2="1776"></line><line x1="57" y1="1803" x2="75" y2="1788"></line><line x1="75" y1="1788" x2="91" y2="1803"></line><circle cx="75" cy="1753" r="15" width="150" height="65"></circle><text x="75" y="1810.5" dominant-baseline="central" alignment-baseline="central" class="actor actor-man" style="text-anchor: middle; font-size: 16px; font-weight: 400;"><tspan x="75" dy="0">User</tspan></text></g></g></svg>